<?xml version="1.0" encoding="utf-8"?>
<!-- Generator: Adobe Illustrator 18.1.1, SVG Export Plug-In . SVG Version: 6.00 Build 0)  -->
<!DOCTYPE svg PUBLIC "-//W3C//DTD SVG 1.1//EN" "http://www.w3.org/Graphics/SVG/1.1/DTD/svg11.dtd">
<svg version="1.1" id="Layer_1" xmlns="http://www.w3.org/2000/svg" xmlns:xlink="http://www.w3.org/1999/xlink" x="0px" y="0px"
	 viewBox="0 0 135 24" enable-background="new 0 0 135 24" xml:space="preserve">
<g id="black">
	<g>
		<rect x="42" width="6.3" height="24"/>
		<polygon points="6,18 6,0 0,0 0,24 21,24 21,18 		"/>
		<polygon points="78,6 93,6 93,0 72,0 72,24 78,24 		"/>
		<polygon points="114,0 114,6 129,6 129,12 114,12 114,24 120,24 120,18 129,18 129,24 135,24 135,0 		"/>
	</g>
</g>
<g id="white" display="none">
	<g display="inline">
		<rect x="352" y="960" fill="#FFFFFF" width="33.8" height="128"/>
		<polygon fill="#FFFFFF" points="160,1056 160,960 128,960 128,1088 240,1088 240,1056 		"/>
		<polygon fill="#FFFFFF" points="544,992 624,992 624,960 512,960 512,1088 544,1088 		"/>
		<polygon fill="#FFFFFF" points="736,960 736,992 816,992 816,1024 736,1024 736,1088 768,1088 768,1056 816,1056 816,1088 
			848,1088 848,960 		"/>
	</g>
</g>
</svg>
